<svg width="139" height="49" viewBox="0 0 139 49" fill="none" xmlns="http://www.w3.org/2000/svg">
<path fill-rule="evenodd" clip-rule="evenodd" d="M74.1575 28.8888C77.0311 28.8888 77.1283 27.0166 77.1283 24.3409V12.2667H85.6549L85.6519 24.5699C85.6519 31.6021 81.5311 35.7305 74.1575 35.7305C66.7839 35.7305 62.6251 31.6021 62.6251 24.5699V12.2667H71.1495V24.3409C71.1495 27.0166 71.2839 28.8888 74.1575 28.8888Z" fill="#34E27B"/>
<path fill-rule="evenodd" clip-rule="evenodd" d="M59.5418 12.2675H42.6647L34.2266 20.7967H42.6625L42.6676 35.7305H51.1022L51.1036 20.7967H59.5418V12.2675Z" fill="#34E27B"/>
<path fill-rule="evenodd" clip-rule="evenodd" d="M88.7264 12.2748V35.7334H101.552L105.774 31.4662L105.772 27.1982H97.1668L97.1566 12.2748H88.7264Z" fill="#34E27B"/>
</svg>
