<svg width="139" height="49" viewBox="0 0 139 49" fill="none" xmlns="http://www.w3.org/2000/svg">
<path fill-rule="evenodd" clip-rule="evenodd" d="M97.1575 28.8888C100.031 28.8888 100.128 27.0166 100.128 24.3409V12.2667H108.655L108.652 24.5699C108.652 31.6021 104.531 35.7305 97.1575 35.7305C89.7839 35.7305 85.6251 31.6021 85.6251 24.5699V12.2667H94.1495V24.3409C94.1495 27.0166 94.2839 28.8888 97.1575 28.8888Z" fill="#34E27B"/>
<path fill-rule="evenodd" clip-rule="evenodd" d="M82.5418 12.2675H65.6647L57.2266 20.7967H65.6625L65.6676 35.7305H74.1022L74.1036 20.7967H82.5418V12.2675Z" fill="#34E27B"/>
<path fill-rule="evenodd" clip-rule="evenodd" d="M111.726 12.2748V35.7334H124.552L128.774 31.4662L128.772 27.1982H120.167L120.157 12.2748H111.726Z" fill="#34E27B"/>
</svg>
